<svg width="37" height="37" viewBox="0 0 37 37" fill="none" xmlns="http://www.w3.org/2000/svg">
<path d="M32.7312 3.09659C28.6672 -0.807704 22.3883 -0.221257 18.5 4.30162C14.6117 -0.221257 8.33281 -0.815738 4.26876 3.09659C-1.01874 8.18181 -0.245304 16.4724 3.52344 20.8668L15.8562 35.2227C16.5594 36.0421 17.5016 36.5 18.5 36.5C19.5055 36.5 20.4406 36.0501 21.1437 35.2307L33.4765 20.8748C37.2383 16.4804 38.0258 8.18985 32.7312 3.09659ZM31.0719 18.1595L18.7391 32.5154C18.5703 32.7082 18.4297 32.7082 18.2609 32.5154L5.92813 18.1595C3.36172 15.171 2.84141 9.51538 6.44141 6.05293C9.17656 3.42596 13.3953 3.81961 16.0391 6.89645L18.5 9.76442L20.9609 6.89645C23.6187 3.80354 27.8375 3.42596 30.5586 6.0449C34.1515 9.50735 33.6172 15.1951 31.0719 18.1595Z" fill="#6690D8"/>
</svg>
